<?xml version="1.0" encoding="iso-8859-1"?>
<!-- Generator: Adobe Illustrator 21.0.0, SVG Export Plug-In . SVG Version: 6.00 Build 0)  -->
<svg xmlns="http://www.w3.org/2000/svg" xmlns:xlink="http://www.w3.org/1999/xlink" version="1.1" id="Capa_1" x="0px" y="0px" viewBox="0 0 512.539 512.539" style="enable-background:new 0 0 512.539 512.539;" xml:space="preserve" width="512" height="512">
<g>
	<g>
		<g>
			<path style="fill:#F9CFBF;" d="M140.225,425.073c-10.633-29.902-5.375-64.024,13.563-89.45     c17.232-23.136,44.34-37.967,72.908-41.128c19.012-2.104,38.54,0.86,56.065,8.526c-11.717-30.623-7.203-65.305,10.403-92.754     c8.034-12.525,18.702-21.037,30.479-29.711c12.668-9.331,29.242-14.761,44.678-16.899c30.292-4.196,61.947,3.727,86.382,22.166     c24.796,18.711,40.213,47.525,43.264,78.338c3.069,30.983-6.015,61.328-22.149,87.636c-2.02,3.294-4.143,6.524-6.36,9.689     c0,0-26.272,30.741-36.398,39.583c-95.435,83.331-228.935,111.831-354.935,101.831c-5-1-9-2-13-5c-3-3-6-8-8-12c-1-2-2-4-4-7     c-18-27-26-55-32-86c-4-16-5-32-6-48c-1-19,0-37,2-56c3-19,6.204-36.708,10-55c5.5-26.5,16.804-54.646,16.804-54.646     c7.196-22.354,19.196-43.354,26.196-65.354c-1-15-1-31,5-46c2-5,3-10,6-15c1-1,2-2,3-3c13-23,37-36,62-40c17-2,33-3,49-2     c9,1,17,6,23,13c11,15,14,32,19,49c1,4,1,8-1,11c-1,2-2,5-3,7c-9,13-25,16-38,23c-11,5-23-2-27-13c-1-1-2-2-3-3l-3.378,0.161     c0,0-4.771,16.305-39.738,30.264l0.732,5.615c51.075,109.576,27.555,211.135,27.555,211.135"/>
			<g>
				<path style="fill:#F6B99C;" d="M140.125,420.899c0,0,3-66,11-83c11-59,3.753-138.014-28.384-206.96l-0.732-5.615      c0.116-0.425-24.884,2.575-36,0l0.732,5.615C131.125,213.899,139.06,422.328,140.125,420.899z"/>
				<path style="fill:#F6B99C;" d="M226.696,294.495c-2.001,0.221-3.993,0.506-5.976,0.841c8.951,1.481,17.723,4.047,26.041,7.685      c-1.141-2.983-2.124-6.005-2.96-9.055C238.098,293.7,232.374,293.866,226.696,294.495z"/>
				<path style="fill:#F6B99C;" d="M182.125,20.899c11,15,14,32,19,49c1,4,1,8-1,11c-1,2-2,5-3,7      c-6.118,8.837-15.47,13.053-24.916,17.045c5.56,6.597,14.527,9.768,22.916,5.955c13-7,29-10,38-23c1-2,2-5,3-7c2-3,2-7,1-11      c-5-17-8-34-19-49c-6-7-14-12-23-13c-10.959-0.685-21.926-0.416-33.206,0.454C169.778,9.98,176.754,14.633,182.125,20.899z"/>
				<path style="fill:#F6B99C;" d="M497.967,264.161c-3.052-30.813-18.469-59.627-43.264-78.338      c-24.435-18.44-56.09-26.362-86.382-22.166c-0.637,0.088-1.279,0.191-1.919,0.29c18.86,2.904,36.997,10.327,52.301,21.876      c24.796,18.711,40.213,47.525,43.264,78.338c3.069,30.983-6.015,61.328-22.149,87.636c-2.02,3.294-4.143,6.524-6.36,9.689      c0,0-26.272,30.741-36.398,39.583c-78.88,68.875-183.763,100.29-288.923,103.471c116.865,3.507,237.035-26.731,324.923-103.471      c10.126-8.842,36.398-39.583,36.398-39.583c2.217-3.165,4.34-6.395,6.36-9.689C491.952,325.488,501.036,295.144,497.967,264.161      z"/>
			</g>
			<g>
				<path style="fill:#F6B99C;" d="M170.125,7.899c9,1,17,6,23,13c11,15,14,32,19,49c1,4,1,8-1,11c-1,2-2,5-3,7      c-2.019,2.916-4.39,5.329-7,7.397c-7.436,5.891-16.815,8.982-25.527,12.923c5.451,4.254,12.682,5.791,19.527,2.68      c13-7,29-10,38-23c1-2,2-5,3-7c2-3,2-7,1-11c-5-17-8-34-19-49c-6-7-14-12-23-13c-8.521-0.533-17.047-0.485-25.719-0.034      C169.645,7.88,169.885,7.884,170.125,7.899z"/>
				<path style="fill:#F6B99C;" d="M282.125,300.899c0,0-79.289-30.224-131,37c-10,13-24,48-11,88c0,0,2.359-56.092,52-95      C229.125,301.899,282.125,300.899,282.125,300.899z"/>
			</g>
			<path style="fill:#F6B99C;" d="M189.125,66.899c0,0-12-11-24-2s-12,19-3,31s17,17,23,17s17.755-2.316,28-10c8-6-3-16-3-16     s-20.461,20.724-34-5C166.125,62.899,189.125,66.899,189.125,66.899z"/>
		</g>
		<path style="fill:none;stroke:#000000;stroke-width:15;stroke-linecap:round;stroke-linejoin:round;stroke-miterlimit:10;" d="    M191.125,100.899"/>
	</g>
	<g>
		<path d="M428.124,395.421c-44.853,39.194-99.756,67.624-163.186,84.502c-55.504,14.768-117.617,20.265-180.018,15.96    c-5.791-0.4-11.223-3.023-15.103-7.341c-11.516-12.815-19.54-29.37-26.259-45.075c-7.987-18.669-13.116-38.209-16.576-58.186    c-7.37-42.561-4.91-85.113,2.549-127.488c1.631-9.266,4.149-18.097,6.561-27.147c1.462-5.488,1.356-13.015-6.303-12.74    c-7.595,0.272-9.083,10.8-10.582,16.535c-2.844,10.882-4.323,22.035-6.449,33.072C1.125,327.899,1.125,421.899,52.943,492.89    c5.631,7.714,11.042,14.431,20.669,16.706c16.827,3.977,36.375,2.771,53.589,2.771c49.25,0,96.704-6.004,141.593-17.949    c65.673-17.475,122.6-46.982,169.2-87.703C445.262,400.363,435.445,389.029,428.124,395.421z"/>
		<path d="M505.431,263.422c-3.314-33.459-20.157-63.925-46.211-83.586c-52.6-39.693-135.596-30.951-172.368,26.381    c-16.395,25.56-21.848,56.277-15.531,84.716c-14.696-4.24-30.162-5.586-45.45-3.893c-24.249,2.684-46.772,12.92-64.198,28.789    c0.976-10.404,1.691-23.37,1.498-38.328c-0.464-35.956-6.55-90.577-32.674-147.629c18.558-8.279,28.313-17.232,33.347-23.706    c3.257,5.271,8.02,9.434,13.656,11.802c12.63,5.306,23.529-1.76,34.906-6.658c10.269-4.421,20.356-9.709,26.886-19.142    c7.665-11.072,5.667-21.781,2.373-33.896c-3.812-14.026-7.754-28.53-17.492-41.808c-0.112-0.153-0.23-0.302-0.354-0.446    C216.196,7.125,206.3,1.595,195.953,0.445c-0.12-0.013-0.24-0.024-0.36-0.031c-14.918-0.933-30.445-0.304-50.344,2.037    c-0.103,0.012-0.206,0.026-0.309,0.043C115.543,7.197,93.789,24.458,78.117,45.3c-16.993,22.599-16.445,53.497-15.569,67.654    c-3.341,10.184-7.727,20.1-12.359,30.572c-4.766,10.775-9.694,21.917-13.4,33.43c-2.934,9.116,11.297,13.862,14.278,4.596    c7.207-22.389,19.07-42.958,26.204-65.378c1.845-5.799-7.147-36.274,14.144-63.86c14.561-18.866,31.725-31.103,55.742-34.984    c18.81-2.207,33.419-2.811,47.307-1.957c6.419,0.763,12.718,4.375,17.782,10.195c7.966,10.974,11.356,23.443,14.942,36.638    c2.634,9.695,3.632,12.678-0.556,21.882c-5.165,7.107-13.3,10.24-20.972,13.787c-6.943,3.21-16.408,10.006-24.121,5.356    c-3.948-2.38-4.761-5.808-7.09-9.361c-3.479-5.309-11.823-12.774-8.417-20.056c3.069-6.561,10.88-4.877,15.9-2.32    c4.936,2.515,12.218,5.634,15.512-0.875c3.408-6.733-3.812-9.999-8.701-12.49c-4.874-2.484-10.933-5.571-19.264-3.55    c-8.076,1.667-14.511,6.661-17.265,13.398c-4.305,9.837-0.461,18.69,3.235,25.239l-0.903-0.264c0,0,0.017-0.073,0.066-0.211    c-1.669,4.64-11.214,15.966-35.387,25.616c-2.93,1.17-4.786,4.119-4.669,7.238c0.086,2.274,0.458,6.524,1.384,8.511    c25.732,55.205,31.726,108.284,32.222,143.09c0.429,30.064-3.05,52.054-4.529,59.963c-16.986,26.654-21.068,60.642-10.477,90.424    c3.214,9.04,17.378,4.102,14.133-5.025c-12.221-34.367-1.037-73.7,26.305-97.174c29.106-24.989,71.087-30.837,106.159-15.495    c5.945,2.603,12.33-3.488,10.011-9.551c-7.937-20.742-7.831-44.041-0.548-64.949c7.297-20.949,21.076-36.085,38.873-48.798    c35.549-25.393,88.166-20.387,122.094,5.215c22.721,17.146,37.416,43.786,40.318,73.091c2.712,27.375-4.578,56.068-21.079,82.976    c-1.908,3.112-3.964,6.243-6.109,9.306c-5.539,7.906,6.71,16.566,12.285,8.606c2.32-3.312,4.545-6.7,6.611-10.071    C500.438,325.996,508.467,294.081,505.431,263.422z"/>
	</g>
</g>















</svg>
